<?xml version="1.0" encoding="UTF-8" standalone="no"?>
<svg
   xmlns:dc="http://purl.org/dc/elements/1.1/"
   xmlns:cc="http://creativecommons.org/ns#"
   xmlns:rdf="http://www.w3.org/1999/02/22-rdf-syntax-ns#"
   xmlns:svg="http://www.w3.org/2000/svg"
   xmlns="http://www.w3.org/2000/svg"
   xmlns:sodipodi="http://sodipodi.sourceforge.net/DTD/sodipodi-0.dtd"
   xmlns:inkscape="http://www.inkscape.org/namespaces/inkscape"
   version="1.1"
   id="svg10"
   width="28.129633"
   height="10.103314"
   viewBox="0 0 28.129633 10.103315"
   sodipodi:docname="404.svg"
   inkscape:version="1.0.1 (3bc2e813f5, 2020-09-07)">
  <metadata
     id="metadata16">
    <rdf:RDF>
      <cc:Work
         rdf:about="">
        <dc:format>image/svg+xml</dc:format>
        <dc:type
           rdf:resource="http://purl.org/dc/dcmitype/StillImage" />
        <dc:title></dc:title>
      </cc:Work>
    </rdf:RDF>
  </metadata>
  <defs
     id="defs14" />
  <sodipodi:namedview
     pagecolor="#ffffff"
     bordercolor="#666666"
     borderopacity="1"
     objecttolerance="10"
     gridtolerance="10"
     guidetolerance="10"
     inkscape:pageopacity="0"
     inkscape:pageshadow="2"
     inkscape:window-width="1920"
     inkscape:window-height="1017"
     id="namedview12"
     showgrid="false"
     inkscape:pagecheckerboard="true"
     fit-margin-top="0"
     fit-margin-left="0"
     fit-margin-right="0"
     fit-margin-bottom="0"
     inkscape:zoom="32"
     inkscape:cx="11.227373"
     inkscape:cy="5.7486768"
     inkscape:window-x="-8"
     inkscape:window-y="-8"
     inkscape:window-maximized="1"
     inkscape:current-layer="g18" />
  <g
     inkscape:label="Image"
     id="g18"
     sodipodi:insensitive="true"
     inkscape:groupmode="layer"
     style="display:inline"
     transform="translate(-57.719073,-204.91473)">
    <g
       id="g845"
       style="display:inline"
       transform="matrix(0.05382431,0,0,0.05382431,54.612384,203.44485)">
      <path
         style="display:inline;fill:#fe0000;stroke-width:0.32"
         d="m 134.32393,214.69657 c -1.08625,-0.63286 -1.33593,-1.67574 -1.41172,-5.89656 -0.0626,-3.4846 -0.36943,-9.32295 -0.8662,-16.48 -0.18108,-2.60883 -0.56211,-6.54799 -0.69971,-7.23357 -0.12031,-0.59947 -0.30533,-0.65721 -1.68211,-0.52491 -1.30157,0.12506 -1.68993,0.0256 -2.44847,-0.62683 -1.07954,-0.92859 -1.11353,-1.45657 -0.38355,-5.95886 0.29465,-1.8173 0.45528,-3.43434 0.35696,-3.59343 -0.0983,-0.15908 -0.003,-0.87441 0.21084,-1.58961 0.66455,-2.21807 0.67245,-2.21635 -8.51997,-1.85399 -20.695798,0.81583 -57.160958,1.00982 -59.125563,0.31454 -1.695491,-0.60004 -2.244256,-1.78034 -1.967024,-4.23075 0.203773,-1.80109 0.368486,-2.09739 2.814512,-5.0628 1.428944,-1.73236 3.030077,-3.69389 3.558077,-4.35894 2.014125,-2.53694 2.619283,-3.22515 4.592115,-5.2223 1.117661,-1.13144 2.488858,-2.65147 3.047101,-3.37786 1.57992,-2.05578 2.156663,-2.73414 3.956522,-4.6536 0.921658,-0.9829 1.677658,-1.88944 1.68,-2.01453 0.0039,-0.20973 2.567258,-3.28974 8.466096,-10.17257 1.282128,-1.496 2.69976,-3.26394 3.150295,-3.92875 0.450534,-0.66482 1.542774,-2.03282 2.427203,-3.04 3.529232,-4.01908 9.597306,-12.02071 13.160666,-17.35425 1.48027,-2.21561 2.04905,-3.03238 2.78346,-3.997 0.40199,-0.528 0.98417,-1.29968 1.29372,-1.71485 0.30955,-0.41516 0.93935,-1.20716 1.39954,-1.76 0.4602,-0.55283 1.3242,-1.839102 1.92,-2.858382 1.92229,-3.288586 2.34148,-3.920327 3.64328,-5.490756 0.704,-0.849264 2.216,-2.888048 3.36,-4.530627 3.77625,-5.422019 17.27065,-24.251834 18.66545,-26.045383 0.75278,-0.968 1.85901,-2.624 2.45828,-3.68 0.59927,-1.056 1.70506,-2.731124 2.4573,-3.7225 0.75224,-0.991372 1.725,-2.513843 2.16169,-3.383264 0.43668,-0.869421 1.69922,-2.970537 2.80563,-4.669145 1.10641,-1.698605 2.58765,-4.044625 3.29165,-5.21337 0.704,-1.168746 1.88023,-3.020938 2.61383,-4.115981 0.7336,-1.095047 1.54832,-2.48256 1.8105,-3.083367 0.71829,-1.646087 3.82169,-5.514989 4.80906,-5.995297 1.16422,-0.566336 2.59629,-0.21315 3.43633,0.847492 0.9461,1.194541 0.68359,3.192075 -0.97452,7.415431 -0.72553,1.848 -1.60176,4.404 -1.94717,5.68 -0.34541,1.276 -0.92895,3.436 -1.29674,4.8 -0.36779,1.364 -0.78552,3.128 -0.9283,3.92 -0.14277,0.792 -0.64109,2.880001 -1.10738,4.640001 -0.46629,1.76 -0.9684,4.064 -1.11581,5.12 -0.1474,1.056 -0.47869,2.712 -0.73619,3.68 -0.2575,0.968 -0.64906,2.624 -0.87014,3.68 -0.22108,1.056 -0.51514,2.28 -0.65346,2.72 -0.13833,0.44 -0.42261,1.664 -0.63175,2.72 -0.20913,1.056 -0.50965,2.496 -0.66781,3.2 -0.15817,0.704 -0.45069,2.144 -0.65006,3.2 -0.19937,1.056 -0.48487,2.568 -0.63444,3.36 -1.22078,6.464349 -1.82625,9.191847 -2.19229,9.875805 -0.17269,0.32266 -0.47602,1.508602 -0.67409,2.635425 -0.19806,1.126825 -0.57485,3.272771 -0.8373,4.768771 -0.26245,1.495997 -0.60862,3.367997 -0.76926,4.159997 -0.16064,0.792 -0.56862,3.096 -0.90661,5.12 -1.77752,10.6442 -2.4084,13.8365 -3.22526,16.32 -0.20261,0.616 -0.57428,2.344 -0.82594,3.84 -0.25165,1.496 -0.60413,3.368 -0.78329,4.16 -0.44564,1.97 -0.91368,4.21789 -1.43253,6.88 -0.24011,1.232 -0.59698,3.032 -0.79303,4 -0.19605,0.968 -0.48981,2.84 -0.6528,4.16 -0.28158,2.28041 -0.4331,3.03419 -1.2865,6.4 -0.54453,2.14766 -1.2651,6.71637 -1.27146,8.0616 -0.005,1.16237 0.0166,1.18321 1.35441,1.28 3.06733,0.22193 23.70457,-0.38116 27.12001,-0.79254 4.47427,-0.5389 7.40896,-0.32231 8.34735,0.61608 0.78807,0.78807 1.11808,2.81516 0.65414,4.01813 -0.59498,1.54275 -1.41944,1.79969 -6.92149,2.15708 -4.56654,0.29662 -8.44521,0.80523 -18.72001,2.45478 -1.672,0.26843 -3.89446,0.53904 -4.93881,0.60135 -2.58026,0.15394 -4.61933,0.76738 -5.01629,1.50912 -0.31322,0.58526 -0.19664,12.77002 0.15552,16.25441 0.35984,3.56046 0.8611,12.42155 0.95034,16.8 0.10334,5.07007 -0.12274,6.20138 -1.37303,6.87051 -0.77681,0.41574 -2.24813,0.40883 -2.9738,-0.0139 z M 101.76,165.64599 c 9.69761,-0.18123 22.85713,-0.6986 25.10797,-0.98714 2.54981,-0.32685 2.46034,-0.13942 3.82792,-8.01885 0.24438,-1.408 0.67651,-3.40552 0.9603,-4.43894 0.28378,-1.03342 0.65134,-2.90542 0.8168,-4.16 0.27519,-2.08667 0.60703,-3.94196 1.58129,-8.84106 1.23964,-6.2336 1.77025,-9.00227 2.59088,-13.51913 0.1518,-0.83553 0.36417,-1.66179 0.47194,-1.83616 0.28951,-0.46845 1.10762,-3.72415 1.44579,-5.75364 0.16232,-0.97409 0.58054,-3.49907 0.92939,-5.61107 0.34884,-2.112 0.77511,-4.56 0.94724,-5.44 0.79186,-4.04808 1.37439,-7.341543 1.93157,-10.9205 0.33227,-2.134278 0.74305,-4.150278 0.91285,-4.48 0.46129,-0.895728 1.99524,-7.424797 2.65942,-11.319498 0.1951,-1.144 0.4814,-2.656 0.63624,-3.36 0.15484,-0.704 0.48042,-2.36 0.72352,-3.68 0.24311,-1.32 0.68567,-3.408 0.98348,-4.64 0.2978,-1.232 0.68824,-2.888 0.86764,-3.68 0.17939,-0.792 0.46408,-1.944 0.63264,-2.56 0.16855,-0.616 0.44576,-2.056 0.61602,-3.2 0.17026,-1.144 0.45613,-2.728 0.63526,-3.52 0.60256,-2.664199 0.86774,-4.480001 0.65423,-4.480001 -0.274,0 -1.5303,1.699338 -1.9483,2.63538 -0.17797,0.398541 -0.8966,1.516621 -1.59695,2.484621 -1.52649,2.109852 -2.67669,3.81984 -3.87441,5.76 -0.48892,0.792 -1.48088,2.232 -2.20436,3.2 -0.72348,0.968 -4.43683,6.157565 -8.25189,11.532365 -3.81506,5.3748 -7.11431,9.9828 -7.33165,10.24 -1.00793,1.19274 -2.00021,2.571504 -3.40559,4.732029 -0.83874,1.289418 -1.99984,2.873418 -2.58022,3.52 -1.07067,1.192794 -3.21072,4.356285 -3.93417,5.815604 -0.21813,0.44 -0.90174,1.448 -1.51912,2.24 -0.6174,0.792 -1.48273,1.944 -1.92297,2.56 -0.44025,0.616 -1.12496,1.57122 -1.5216,2.12271 -0.39663,0.55149 -1.29394,1.84749 -1.99402,2.88 -0.70007,1.03251 -1.99607,2.84556 -2.88,4.02901 -0.88392,1.18344 -1.96714,2.66914 -2.40714,3.30157 -1.6754,2.40809 -7.285629,9.45933 -9.199997,11.56306 -0.748,0.82198 -1.36,1.61861 -1.36,1.77028 0,0.25787 -3.695933,4.72256 -7.465712,9.0186 -0.909859,1.03687 -2.160407,2.54887 -2.778995,3.36 -1.525783,2.00068 -2.183412,2.78641 -3.619127,4.32405 -0.673107,0.7209 -2.001786,2.31872 -2.952618,3.55072 -0.950832,1.232 -2.677161,3.17366 -3.836288,4.31479 -1.159123,1.14113 -2.398189,2.54513 -2.753478,3.12 -0.35529,0.57487 -0.75416,1.04521 -0.886381,1.04521 -0.284071,0 -3.547402,4.69718 -3.547402,5.10607 0,0.15433 0.18,0.35565 0.4,0.44738 0.436032,0.1818 20.394282,0.0537 35.439998,-0.22746 z m 343.68001,34.66791 c -2.69596,-0.55788 -3.76339,-3.09119 -2.11164,-5.01146 0.66438,-0.7724 0.95664,-0.87702 2.16,-0.77328 7.10028,0.61214 14.20934,-0.36213 20.75165,-2.84396 0.968,-0.36722 3.056,-1.108 4.64,-1.64621 2.99568,-1.01784 7.711,-3.1953 9.92,-4.58088 0.704,-0.44158 1.81024,-1.09225 2.4583,-1.44592 0.64803,-0.35367 1.26614,-0.78524 1.37357,-0.95905 0.10742,-0.1738 0.66377,-0.53832 1.23638,-0.81002 0.57258,-0.27171 1.50224,-0.91524 2.06589,-1.43007 0.56368,-0.51483 1.32224,-1.14435 1.6857,-1.39893 0.7263,-0.50871 2.81772,-2.38917 7.11027,-6.393 3.00121,-2.79936 6.06537,-6.31863 7.99389,-9.18112 0.65216,-0.968 1.6126,-2.336 2.13433,-3.04 1.52983,-2.06421 2.90167,-4.02337 2.90167,-4.14391 0,-0.0615 0.5767,-1.02628 1.28156,-2.14395 0.70484,-1.11768 1.59159,-2.68014 1.9705,-3.47214 1.89466,-3.95994 2.82794,-6.07568 2.82794,-6.41086 0,-0.20369 0.25977,-0.75257 0.57731,-1.21974 0.55641,-0.81869 1.18009,-2.23696 2.09731,-4.7694 0.98221,-2.71194 2.71558,-7.87181 3.09056,-9.2 0.14906,-0.528 0.5096,-1.608 0.80122,-2.4 0.83936,-2.27973 2.49264,-11.81631 2.94022,-16.96 0.78263,-8.99438 -0.80909,-24.958065 -2.98809,-29.968359 -0.24119,-0.554599 -0.43853,-1.2301 -0.43853,-1.501114 0,-0.271014 -0.13293,-0.574902 -0.2954,-0.675309 -0.16243,-0.100406 -0.3895,-0.611171 -0.50457,-1.135037 -0.11504,-0.523865 -0.55351,-1.566214 -0.97431,-2.316329 -0.4208,-0.750119 -1.00409,-1.79585 -1.29619,-2.32385 -0.93721,-1.694202 -3.94269,-5.179507 -5.748,-6.665741 -2.87657,-2.368154 -11.03654,-5.974259 -13.51869,-5.974259 -1.16502,0 -1.99696,-0.595623 -2.49424,-1.785757 -0.39766,-0.951738 -0.39628,-1.24001 0.0106,-2.213527 0.6586,-1.576227 1.54426,-1.89327 4.2193,-1.510387 2.10426,0.301187 2.83008,0.505303 5.72163,1.609005 2.18909,0.835584 6.90749,3.2288 7.85127,3.982247 0.49497,0.395129 1.50204,1.150419 2.23798,1.678419 1.66234,1.192643 4.91427,5.079766 6.55895,7.84 0.68163,1.144 1.40259,2.296 1.60214,2.56 0.76115,1.007056 3.47434,8.923671 4.00298,11.68 0.20252,1.056 0.50115,2.496 0.66358,3.200001 0.55037,2.38518 0.86531,5.427948 0.90797,8.772717 0.0234,1.832995 0.11536,3.45055 0.20435,3.594569 0.089,0.144019 0.20906,2.388291 0.26672,4.987281 0.16256,7.32356 -1.74563,20.21318 -3.89725,26.32543 -0.34073,0.968 -0.87315,2.624 -1.1831,3.68 -0.30995,1.056 -0.70778,2.28 -0.88403,2.72 -0.17623,0.44 -0.59357,1.664 -0.9274,2.72 -0.70582,2.23273 -0.74377,2.32395 -2.48297,5.96872 -0.72666,1.5228 -1.32119,2.90123 -1.32119,3.06318 0,0.16195 -0.41744,1.07602 -0.92761,2.03128 -0.51018,0.95525 -1.02346,2.19488 -1.14058,2.75471 -0.11712,0.55984 -0.43021,1.19821 -0.69578,1.41859 -0.26553,0.22039 -0.76179,0.91434 -1.10278,1.54212 -0.34096,0.62777 -0.79843,1.42099 -1.01661,1.76271 -0.21814,0.34171 -0.88825,1.42171 -1.48912,2.4 -0.60086,0.97828 -1.18019,1.85069 -1.28739,1.93869 -0.1072,0.088 -0.47958,0.57624 -0.82752,1.08498 -0.34794,0.50874 -0.95712,1.37274 -1.35376,1.92 -0.39664,0.54726 -1.08355,1.53679 -1.5265,2.19895 -2.3343,3.48961 -7.11952,8.65154 -11.96921,12.9115 -0.7793,0.68452 -1.72794,1.53258 -2.10813,1.88458 -1.96301,1.81749 -4.49043,3.89096 -5.22541,4.2869 -0.45629,0.24579 -1.48211,0.89999 -2.27961,1.45377 -0.79748,0.55378 -2.16999,1.43084 -3.04999,1.94902 -0.88,0.51818 -1.888,1.1132 -2.24,1.32226 -2.00137,1.18865 -6.53222,3.17993 -10.08,4.43009 -1.32,0.46514 -2.94,1.05097 -3.6,1.30183 -3.14125,1.194 -3.72713,1.37856 -5.52,1.73882 -1.056,0.21219 -2.28,0.50285 -2.72,0.64591 -0.95187,0.30949 -3.12659,0.64408 -5.12,0.78773 -4.95926,0.3574 -8.6695,0.41633 -9.92,0.15756 z m -74.24,-4.05426 c -0.7864,-0.30005 -1.65081,-1.16659 -2.01472,-2.01963 -0.22205,-0.52053 -0.40486,-7.5859 -0.52329,-20.22444 -0.13504,-14.41495 -0.28048,-19.52283 -0.56397,-19.80597 -0.29571,-0.29538 -0.76538,-0.29513 -2.08,9.6e-4 -4.03757,0.90988 -4.69255,1.0226 -6.81802,1.17339 -1.232,0.0874 -2.7232,0.31393 -3.31382,0.50338 -2.10125,0.67406 -18.88535,1.34272 -34.45748,1.37274 -8.84585,0.0171 -10.42524,-0.0529 -11.52,-0.50994 -0.69778,-0.29135 -1.74349,-0.70763 -2.32379,-0.92508 -0.5803,-0.21744 -1.24946,-0.77122 -1.48702,-1.23061 -0.63623,-1.23033 -0.9384,-4.27165 -0.54857,-5.52139 0.18412,-0.59026 0.63443,-2.08121 1.0007,-3.31321 0.36626,-1.232 1.02087,-2.888 1.45468,-3.68 0.43381,-0.792 1.37352,-2.664 2.08824,-4.16 0.71472,-1.496 1.50329,-3.08 1.75238,-3.52 0.24908,-0.44 0.84053,-1.592 1.31432,-2.56 0.47378,-0.968 1.23099,-2.48 1.68268,-3.36 0.45169,-0.88 1.1002,-2.176 1.44113,-2.88 0.34094,-0.704 0.87035,-1.568 1.17647,-1.92 0.30612,-0.352 1.30141,-2.08 2.21177,-3.84 0.91036,-1.76 1.85023,-3.416 2.0886,-3.68 0.23837,-0.264 0.88416,-1.344 1.43507,-2.4 1.28115,-2.4557 3.30371,-5.78547 3.94378,-6.49273 0.27302,-0.3017 0.93926,-1.48426 1.48051,-2.62791 0.54125,-1.14365 1.77478,-3.20063 2.74115,-4.57108 0.9664,-1.370447 2.2513,-3.40708 2.85536,-4.525855 0.60406,-1.118774 2.37027,-3.813498 3.92493,-5.988278 3.4329,-4.802305 3.41526,-4.776884 6.07923,-8.754145 1.17888,-1.76 2.84483,-4.064 3.70218,-5.12 0.85734,-1.056 1.89974,-2.352 2.31645,-2.88 0.41667,-0.528 1.56675,-1.968 2.55571,-3.2 0.98896,-1.232 2.18672,-2.731325 2.66173,-3.33183 0.47497,-0.600506 1.22361,-1.48274 1.66361,-1.960522 0.44,-0.477779 1.232,-1.406999 1.76,-2.064931 3.29578,-4.106797 10.7032,-11.448842 12.07824,-11.971636 1.25047,-0.475421 3.67181,0.249635 4.62781,1.385754 l 0.8241,0.979417 -0.22112,5.121876 c -0.12167,2.81703 -0.26701,6.273872 -0.32301,7.681872 -0.056,1.408 -0.28186,5.008 -0.50186,8 -0.61773,8.400512 -0.6936,12.109466 -0.84589,41.358838 -0.0992,19.05703 -0.0386,27.47209 0.20112,27.92 0.42887,0.80134 1.18964,0.80543 3.83159,0.0206 1.14896,-0.34133 3.08,-0.87184 4.29117,-1.1789 1.21116,-0.30707 2.70227,-0.89772 3.31356,-1.31255 0.6113,-0.41484 1.70836,-0.97959 2.43786,-1.25502 3.02096,-1.14053 4.40461,-0.8656 5.19782,1.03282 0.39767,0.95174 0.39629,1.24001 -0.0106,2.21353 -0.28476,0.68155 -0.81833,1.25895 -1.36428,1.47641 -1.86535,0.74297 -3.60845,1.61216 -3.77565,1.88271 -0.15043,0.24337 -2.53939,1.02945 -5.76099,1.89562 -5.13754,1.3813 -6.19581,1.80979 -6.5746,2.66204 -0.17696,0.39816 -0.68262,1.22001 -1.12371,1.82632 l -0.80198,1.10238 0.0921,17.77762 0.0921,17.77762 0.77434,1.66292 c 0.76553,1.64405 0.76781,1.67739 0.2,2.93658 -0.98787,2.19068 -2.94368,3.55225 -4.33827,3.02013 z m -36.66186,-45.02427 c 2.6993,-0.18779 2.90432,-0.25413 3.68861,-1.19361 0.6217,-0.74467 1.23056,-1.06556 2.42186,-1.27634 0.87526,-0.15487 2.23939,-0.42664 3.03139,-0.60395 0.792,-0.1773 2.88,-0.53828 4.64,-0.80218 1.76,-0.2639 3.704,-0.61527 4.32,-0.78083 0.616,-0.16556 4,-0.60443 7.52,-0.97526 5.25427,-0.55354 7.43287,-0.92473 8.22867,-1.40202 0.0378,-0.0226 0.17156,-13.21718 0.29732,-29.32118 0.23097,-29.573018 0.31305,-33.453239 0.90361,-42.719998 0.17946,-2.816 0.38858,-6.812 0.46467,-8.88 0.15463,-4.200903 -0.008,-4.478032 -1.69084,-2.88 -1.81018,1.719017 -7.31466,8.00001 -9.18439,10.48 -0.66345,0.88 -1.93814,2.48464 -2.83267,3.565866 -3.17094,3.832845 -5.7896,7.24088 -7.21862,9.394685 -0.79626,1.200077 -2.5712,3.814893 -3.94432,5.810704 -3.8256,5.56049 -5.74612,8.430256 -6.62343,9.897283 -0.44,0.73575 -1.34138,2.14632 -2.00304,3.1346 -0.66166,0.98827 -1.53955,2.30086 -1.95088,2.91686 -0.4113,0.616 -0.92131,1.64848 -1.13331,2.29441 -0.21203,0.64592 -0.59322,1.34679 -0.84711,1.55749 -0.25388,0.2107 -0.91686,1.19422 -1.47328,2.1856 -0.55644,0.99138 -1.19164,2.0185 -1.41155,2.2825 -0.21993,0.264 -0.87206,1.416 -1.44918,2.56 -0.57709,1.144 -1.45034,2.63542 -1.94051,3.31426 -0.49015,0.67884 -1.35485,2.19084 -1.92151,3.36 -0.56665,1.16916 -1.48147,2.77374 -2.03289,3.56574 -1.07607,1.54552 -3.67674,6.78214 -3.67674,7.40339 0,0.20691 -0.37531,0.86826 -0.83402,1.46966 -0.45871,0.6014 -1.40632,2.41499 -2.1058,4.0302 -0.69948,1.61521 -1.44763,3.15275 -1.66256,3.41675 -0.69441,0.85294 -2.08686,4.03486 -2.42395,5.539 -0.41242,1.8403 -0.20351,2.3838 1.06045,2.75889 1.05683,0.31362 16.87215,0.23919 21.78402,-0.10252 z m -99.65814,28.3119 c -0.616,-0.33646 -1.57641,-0.82805 -2.13425,-1.09241 -0.55783,-0.26437 -1.16889,-0.76964 -1.3579,-1.12281 -0.18901,-0.35318 -0.5381,-0.83657 -0.77574,-1.07422 -1.20974,-1.20974 -6.10933,-10.19583 -6.7707,-12.41783 -0.13097,-0.44 -1.43309,-3.11009 -2.8936,-5.93355 -2.98508,-5.77072 -3.87222,-8.04056 -4.16689,-10.6614 -0.17454,-1.55238 -0.10578,-1.92821 0.49123,-2.68497 0.45551,-0.57739 1.11674,-0.94749 1.92322,-1.07645 1.52677,-0.24414 1.63842,-0.60626 1.30502,-4.23248 -0.3045,-3.31192 -0.25844,-22.46125 0.0552,-22.96044 0.12071,-0.19211 0.23493,-2.42411 0.25383,-4.96 0.0189,-2.53589 0.16742,-5.57873 0.33004,-6.76187 0.16263,-1.18313 0.45241,-4.56713 0.64396,-7.519999 0.19155,-2.952861 0.39973,-5.872838 0.46262,-6.488838 0.0629,-0.616 0.2661,-2.799591 0.45157,-4.852426 0.18548,-2.052835 0.46858,-4.077914 0.62913,-4.500176 0.16054,-0.422263 0.4655,-2.198672 0.67768,-3.947575 0.21218,-1.748902 0.6811,-4.259824 1.04204,-5.579824 0.36094,-1.32 0.76428,-3.408 0.8963,-4.64 0.29262,-2.730531 0.68012,-4.056157 1.91068,-6.536362 0.52059,-1.049257 0.94653,-2.103251 0.94653,-2.342205 0,-0.983702 3.48099,-7.082922 5.07451,-8.891293 1.81008,-2.054141 3.30052,-3.127709 7.31428,-5.268512 0.7505,-0.400291 6.11911,-0.395309 8.73121,0.0081 1.51022,0.233235 3.97259,1.332141 5.60268,2.500355 3.78855,2.715092 6.07455,4.63577 7.20022,6.049556 0.71839,0.902249 1.56322,1.820512 1.87742,2.040582 0.31419,0.220071 1.20765,1.231904 1.98547,2.248522 0.77782,1.016617 1.63021,2.0804 1.89421,2.363958 0.59506,0.639159 3.42851,4.618068 5.11818,7.187297 0.69449,1.056 1.6729,2.498816 2.17425,3.206256 0.50135,0.707443 1.37213,2.192624 1.93506,3.300403 0.56294,1.107782 1.27881,2.400966 1.59084,2.873744 0.31202,0.472778 0.7337,1.147597 0.93707,1.499597 0.85002,1.471299 7.07705,14.189427 7.55971,15.44 0.79202,2.052141 1.53895,3.936263 2.12489,5.36 0.28973,0.704 0.78638,1.928 1.10367,2.72 0.31729,0.792 0.7615,1.872 0.98713,2.4 0.22563,0.528 0.63087,1.536 0.90053,2.24 2.1212,5.53771 2.73094,7.1831 3.02392,8.16 1.28684,4.29078 2.01043,6.95512 2.6072,9.6 0.37726,1.672 0.82353,3.652 0.99174,4.4 0.16819,0.748 0.44966,1.972 0.62546,2.72 0.89033,3.78796 1.09544,6.33374 1.10219,13.68 0.005,5.02128 -0.12571,8.28553 -0.36247,9.07922 -0.55331,1.85486 -4.28854,9.14472 -4.90914,9.58093 -0.29723,0.20892 -1.17262,1.1185 -1.94532,2.0213 -2.10999,2.46524 -5.68793,5.0418 -8.60491,6.19661 -0.968,0.38322 -2.01017,0.82851 -2.31594,0.98953 -1.44813,0.76259 -3.76668,1.47575 -7.28406,2.24048 -4.68605,1.01882 -16.62178,1.4128 -22.56,0.74466 -4.33787,-0.48808 -9.14555,-1.70605 -15.36,-3.89129 -2.9237,-1.02809 -4,-1.22218 -4,-0.72133 0,0.80425 1.35758,2.74608 2.46084,3.51989 2.0745,1.45501 2.65916,2.16001 2.65916,3.20649 0,1.40874 -0.52411,2.21774 -1.77548,2.7406 -1.31955,0.55134 -1.04932,0.56946 -2.38452,-0.15983 z m 34.4,-10.39307 c 5.42807,-0.54555 7.12937,-0.91897 10.88,-2.38805 0.88,-0.34469 2.104,-0.81824 2.72,-1.05235 0.616,-0.2341 1.624,-0.7548 2.24,-1.1571 0.616,-0.4023 1.55278,-1.00958 2.08173,-1.3495 1.6299,-1.04744 4.78476,-4.84467 6.12089,-7.3672 2.15008,-4.05921 2.35819,-5.08928 2.35104,-11.63674 -0.007,-6.61584 -0.30301,-9.30274 -1.60761,-14.60326 -0.32791,-1.33227 -1.39615,-5.9719 -1.84195,-8 -0.17409,-0.792 -0.46562,-1.872 -0.64785,-2.4 -0.18223,-0.528 -0.72815,-2.256 -1.21315,-3.84 -0.485,-1.584 -1.09197,-3.384 -1.34882,-4 -0.25685,-0.616 -0.64887,-1.552 -0.87116,-2.08 -0.22229,-0.528 -0.63342,-1.572 -0.91364,-2.32 -0.61504,-1.64178 -1.39801,-3.63122 -2.10948,-5.36 -0.28973,-0.704 -0.78638,-1.927997 -1.10367,-2.719997 -0.31729,-0.792 -0.76609,-1.872 -0.99734,-2.4 -0.23124,-0.528 -0.75311,-1.824 -1.15971,-2.88 -0.40661,-1.056 -1.06147,-2.496 -1.45525,-3.2 -0.39378,-0.704 -0.88526,-1.64 -1.09218,-2.08 -0.20691,-0.44 -0.73099,-1.558788 -1.16461,-2.486199 -0.43362,-0.927408 -0.89819,-1.754045 -1.03238,-1.836976 -0.13418,-0.08293 -0.33134,-0.498928 -0.43814,-0.924445 -0.1068,-0.425513 -0.91337,-1.974873 -1.79239,-3.443021 -0.87902,-1.468147 -1.82986,-3.166877 -2.11297,-3.77495 -0.28312,-0.608077 -1.1845,-2.098064 -2.00306,-3.311085 -0.81857,-1.213018 -1.7763,-2.665063 -2.1283,-3.226759 -1.05515,-1.683728 -4.68141,-6.546848 -6.53408,-8.762758 -2.0908,-2.500714 -7.28378,-7.753808 -7.66508,-7.753808 -0.15006,0 -0.80594,-0.423658 -1.45752,-0.941463 -2.38021,-1.891555 -3.79787,-2.35135 -7.13859,-2.31528 -2.13303,0.02304 -3.20361,0.168995 -3.56637,0.486237 -0.2851,0.249331 -0.96942,0.681632 -1.52071,0.960665 -0.5513,0.279037 -1.5593,1.092372 -2.24,1.807415 -1.25828,1.321744 -4.55778,7.103168 -4.58353,8.031315 -0.008,0.279888 -0.44102,1.363188 -0.96279,2.407335 -0.5785,1.157683 -1.02179,2.644752 -1.13607,3.81111 -0.17856,1.822327 -0.37836,2.800439 -1.12608,5.512666 -0.18196,0.66 -0.5386,2.712 -0.79254,4.56 -0.25394,1.848 -0.60825,4.062903 -0.78736,4.92201 -0.17911,0.859104 -0.46599,2.947104 -0.63752,4.64 -0.17153,1.692893 -0.45282,4.445991 -0.6251,6.117991 -0.17228,1.672 -0.39754,4.969494 -0.50059,7.327767 -0.10304,2.35827 -0.26101,4.40696 -0.35104,4.55263 -0.09,0.14568 -0.3127,3.40019 -0.49482,7.23224 -0.93541,19.68249 -0.15646,38.55274 1.85345,44.9005 1.23472,3.89954 6.82261,7.59897 14.98634,9.92161 1.39899,0.39803 4.24156,1.14835 6.08,1.60487 3.93712,0.97766 14.07568,1.39393 19.84,0.81458 z m 290.20506,10.0193 c -1.8351,-0.96037 -4.15072,-3.15684 -5.03244,-4.77349 -1.61607,-2.96307 -2.45261,-4.67688 -2.45261,-5.02464 0,-0.22126 -0.648,-1.8638 -1.44,-3.65009 -0.792,-1.78629 -1.44,-3.38747 -1.44,-3.55818 0,-0.1707 -0.23664,-0.80902 -0.52583,-1.41849 -0.41852,-0.88194 -0.48928,-1.70827 -0.34672,-4.04836 0.0985,-1.61714 0.34391,-3.36865 0.54528,-3.89226 0.37677,-0.97955 3.40519,-3.96756 4.04746,-3.99346 0.19808,-0.008 1.20608,-0.40194 2.24,-0.87544 1.99568,-0.91398 4.07939,-1.22934 10.35981,-1.56795 3.20083,-0.17257 3.93187,-0.11313 5.61443,0.45654 6.00074,2.03169 9.44986,5.97686 9.27798,10.61232 -0.0903,2.43462 -0.5552,3.30773 -3.72121,6.98841 -5.96787,6.93799 -9.57482,8.78187 -14.1376,7.22717 -0.81424,-0.27744 -1.77607,-0.45744 -2.13741,-0.4 l -0.65699,0.10442 0.64707,1.05872 c 0.3559,0.5823 1.10301,1.3023 1.66026,1.6 1.67788,0.89641 2.49347,1.8606 2.49347,2.94778 0,1.40873 -0.5241,2.21774 -1.77549,2.7406 -1.35206,0.56493 -1.01296,0.62114 -3.21946,-0.5336 z m 6.661,-83.219152 c -0.80842,-0.517644 -1.36359,-0.63334 -2.38295,-0.496614 -1.6575,0.222317 -2.86393,-0.284451 -4.6431,-1.950374 -0.96147,-0.900273 -1.36,-1.531242 -1.36,-2.153265 0,-0.998793 -0.61603,-3.332761 -1.02279,-3.875033 -0.44848,-0.597891 -0.5631,-4.755655 -0.15075,-5.467485 0.20544,-0.354634 0.70119,-1.241738 1.10167,-1.971341 0.82928,-1.510887 3.00326,-2.781447 5.67187,-3.314851 1.99235,-0.39824 2.45222,-0.398148 4.63161,9.6e-4 1.51652,0.277699 1.93648,0.529632 3.12932,1.877216 2.35907,2.665165 3.27932,5.223293 3.43779,9.55647 0.0582,1.592218 -0.0923,2.230365 -0.88157,3.737968 -0.52352,0.999882 -1.65744,2.475882 -2.51984,3.280001 -1.2865,1.199548 -1.7825,1.461065 -2.76266,1.45664 -0.66044,-0.0029 -1.66595,-0.307165 -2.2486,-0.680263 z"
         id="path847" />
    </g>
  </g>
</svg>
